<?xml version="1.0" encoding="utf-8"?>
<!-- Generator: Adobe Illustrator 22.1.0, SVG Export Plug-In . SVG Version: 6.00 Build 0)  -->
<svg version="1.1" id="Calque_1" xmlns="http://www.w3.org/2000/svg" xmlns:xlink="http://www.w3.org/1999/xlink" x="0px" y="0px"
	 viewBox="0 0 5 7" style="enable-background:new 0 0 5 7;" xml:space="preserve">
<style type="text/css">
	.st0{fill:url(#SVGID_1_);}
	.st1{fill:url(#SVGID_2_);}
	.st2{fill:#FFFFFF;}
</style>
<g>
	<g id="Page-1">
		<g id="XMLID_1_">
			<g>
				<linearGradient id="SVGID_1_" gradientUnits="userSpaceOnUse" x1="6.640210e-02" y1="3.5265" x2="4.9814" y2="3.5167">
					<stop  offset="7.346526e-02" style="stop-color:#360033"/>
					<stop  offset="0.8917" style="stop-color:#0B8793"/>
				</linearGradient>
				<path class="st0" d="M0.4,4C0.1,3.7,0,3.2,0,2.8c0-1.4,1.1-2.5,2.5-2.5S5,1.4,5,2.8c0,0.5-0.1,1-0.4,1.3c0,0.1-0.1,0.1-0.1,0.2
					c-0.2,0.3-0.9,1.2-2,2.5c-1.1-1.2-1.7-2-2-2.5C0.4,4.2,0.4,4.1,0.4,4z"/>
			</g>
			<g>
			</g>
		</g>
	</g>
	<g id="XMLID_2_">
		<g>
			<linearGradient id="SVGID_2_" gradientUnits="userSpaceOnUse" x1="4.0825" y1="2.5673" x2="4.2672" y2="2.5673">
				<stop  offset="7.346526e-02" style="stop-color:#360033"/>
				<stop  offset="0.8917" style="stop-color:#0B8793"/>
			</linearGradient>
			<circle class="st1" cx="4.2" cy="2.6" r="0.1"/>
			<path class="st2" d="M1.4,2.7C1.8,2.2,2.4,1.9,3,1.9c0.9,0,1.6,0.5,1.6,0.8S3.9,3.5,3,3.5c-0.6,0-1.1-0.2-1.6-0.7
				c-0.1,0-0.1,0-0.1,0C1.1,3.3,0.6,3.4,0.5,3.5c0-0.3,0.1-0.5,0.3-0.7C0.6,2.5,0.5,2.3,0.5,2c0.1,0,0.5,0.2,0.8,0.7
				C1.3,2.7,1.3,2.7,1.4,2.7z M4.3,2.6C4.3,2.5,4.2,2.5,4.3,2.6c-0.1-0.1-0.2-0.1-0.2,0C4.1,2.6,4.1,2.7,4.3,2.6
				C4.2,2.7,4.3,2.6,4.3,2.6z"/>
		</g>
		<g>
		</g>
	</g>
</g>
</svg>
