<?xml version="1.0" encoding="utf-8"?>
<!-- Generator: Adobe Illustrator 22.1.0, SVG Export Plug-In . SVG Version: 6.00 Build 0)  -->
<svg version="1.1" id="Calque_1" xmlns="http://www.w3.org/2000/svg" xmlns:xlink="http://www.w3.org/1999/xlink" x="0px" y="0px"
	 viewBox="0 0 12.5 20" style="enable-background:new 0 0 12.5 20;" xml:space="preserve">
<style type="text/css">
	.st0{fill:url(#SVGID_1_);}
	.st1{fill:url(#SVGID_2_);}
	.st2{fill:#FFFFFF;}
</style>
<g id="Page-1">
	<g id="XMLID_1_">
		<g>
			<linearGradient id="SVGID_1_" gradientUnits="userSpaceOnUse" x1="1.1461" y1="10.5324" x2="11.959" y2="10.5109">
				<stop  offset="7.346526e-02" style="stop-color:#360033"/>
				<stop  offset="0.8917" style="stop-color:#0B8793"/>
			</linearGradient>
			<path class="st0" d="M12,8.8c0,1.1-0.3,2.1-0.9,2.9c-0.1,0.1-0.1,0.3-0.2,0.4c-0.5,0.7-1.9,2.6-4.4,5.5c-2.3-2.7-3.8-4.5-4.4-5.5
				C2,12,1.9,11.8,1.8,11.7C1.3,10.8,1,9.9,1,8.8c0-3,2.5-5.5,5.5-5.5S12,5.8,12,8.8z"/>
		</g>
		<g>
		</g>
	</g>
</g>
<g id="XMLID_2_">
	<g>
		<linearGradient id="SVGID_2_" gradientUnits="userSpaceOnUse" x1="9.9816" y1="8.4223" x2="10.3879" y2="8.4223">
			<stop  offset="7.346526e-02" style="stop-color:#360033"/>
			<stop  offset="0.8917" style="stop-color:#0B8793"/>
		</linearGradient>
		<circle class="st1" cx="10.2" cy="8.4" r="0.2"/>
		<path class="st2" d="M4.1,8.6C5.1,7.5,6.2,7,7.5,7c2,0,3.6,1.1,3.6,1.8c0,0.7-1.5,1.8-3.6,1.8C6.2,10.6,5.1,10,4.1,9
			C4,9,3.9,9,3.9,9c-0.5,1.1-1.5,1.4-1.7,1.5c0-0.7,0.2-1.2,0.6-1.6c-0.4-0.4-0.6-1-0.6-1.6c0.2,0.1,1.2,0.4,1.7,1.5
			C3.9,8.6,4,8.6,4.1,8.6z M10.4,8.4c0-0.1-0.1-0.2-0.2-0.2c-0.1,0-0.2,0.1-0.2,0.2c0,0.1,0.1,0.2,0.2,0.2
			C10.3,8.6,10.4,8.5,10.4,8.4z"/>
	</g>
	<g>
	</g>
</g>
</svg>
