<?xml version="1.0" encoding="utf-8"?>
<!-- Generator: Adobe Illustrator 22.1.0, SVG Export Plug-In . SVG Version: 6.00 Build 0)  -->
<svg version="1.1" id="Calque_1" xmlns="http://www.w3.org/2000/svg" xmlns:xlink="http://www.w3.org/1999/xlink" x="0px" y="0px"
	 viewBox="0 0 5 7" style="enable-background:new 0 0 5 7;" xml:space="preserve">
<style type="text/css">
	.st0{fill:url(#SVGID_1_);}
	.st1{fill:url(#SVGID_2_);}
	.st2{fill:#FFFFFF;}
</style>
<g id="Page-1">
	<g id="XMLID_1_">
		<g>
			
				<linearGradient id="SVGID_1_" gradientUnits="userSpaceOnUse" x1="5.340547e-02" y1="6.579" x2="4.9684" y2="6.5888" gradientTransform="matrix(1 0 0 -1 0 10)">
				<stop  offset="7.346526e-02" style="stop-color:#360033"/>
				<stop  offset="0.8917" style="stop-color:#0B8793"/>
			</linearGradient>
			<path class="st0" d="M5,2.6c0,0.5-0.1,1-0.4,1.3c0,0.1-0.1,0.1-0.1,0.2c-0.2,0.3-0.9,1.2-2,2.5c-1.1-1.2-1.7-2-2-2.5
				c0-0.1-0.1-0.2-0.1-0.2C0.1,3.5,0,3.1,0,2.6c0-1.4,1.1-2.5,2.5-2.5S5,1.3,5,2.6z"/>
		</g>
	</g>
</g>
<g id="XMLID_2_">
	<g>
		
			<linearGradient id="SVGID_2_" gradientUnits="userSpaceOnUse" x1="3.5598" y1="7.48" x2="3.6957" y2="7.48" gradientTransform="matrix(1 0 0 -1 0 10)">
			<stop  offset="7.346526e-02" style="stop-color:#360033"/>
			<stop  offset="0.8917" style="stop-color:#0B8793"/>
		</linearGradient>
		<circle class="st1" cx="3.6" cy="2.5" r="0.1"/>
		<path class="st2" d="M2.7,2c0.7,0,1.2,0.4,1.2,0.6c0,0.2-0.5,0.6-1.2,0.6c-0.5,0-0.8-0.2-1.1-0.5c-0.1,0-0.1,0-0.1,0
			C1.3,3.1,1,3.2,0.9,3.2C0.9,3,1,2.8,1.1,2.6C1,2.5,0.9,2.3,0.9,2.1c0.1,0,0.4,0.1,0.6,0.5c0,0,0,0,0.1,0C1.9,2.2,2.3,2,2.7,2z
			 M3.7,2.5C3.7,2.5,3.7,2.5,3.7,2.5c-0.1-0.1-0.1,0-0.1,0C3.6,2.6,3.6,2.6,3.7,2.5C3.7,2.6,3.7,2.6,3.7,2.5z"/>
	</g>
</g>
</svg>
