<?xml version="1.0" encoding="UTF-8"?>
<svg width="184px" height="240px" viewBox="0 0 184 240" version="1.1" xmlns="http://www.w3.org/2000/svg" xmlns:xlink="http://www.w3.org/1999/xlink">
    <!-- Generator: Sketch 50 (54983) - http://www.bohemiancoding.com/sketch -->
    <title>Oval</title>
    <desc>Created with Sketch.</desc>
    <defs></defs>
    <g id="Page-1" stroke="none" stroke-width="1" fill="none" fill-rule="evenodd">
        <path d="M13.0247451,139.217424 C4.75423093,125.413991 0,109.262201 0,92 C0,41.189803 41.189803,0 92,0 C142.810197,0 184,41.189803 184,92 C184,110.091838 178.777802,126.963966 169.75856,141.19123 C168.555232,143.63528 167.302378,145.904869 166,148 C158.243249,160.478252 133.576582,191.144919 92,240 C53.209652,195.627121 28.5429853,164.960455 18,148 C16.2107348,145.121617 14.5523165,142.194091 13.0247451,139.217424 Z M37,72 C40,73 51.631129,77 58,90 C58,90 59,90 61,90 C72.3333333,76.6666667 86.3333333,70 103,70 C128,70 147,84 147,92 C147,92 112.666667,92 44,92 C39.3333333,86.6666667 37,80 37,72 Z M37,112 C37,104 39.3333333,97.3333333 44,92 C112.666667,92 147,92 147,92 C147,100 128,114 103,114 C86.3333333,114 72.3333333,107.333333 61,94 C59,94 58,94 58,94 C51.631129,107 40,111 37,112 Z M135.5,90 C136.880712,90 138,88.8807119 138,87.5 C138,86.1192881 136.880712,85 135.5,85 C134.119288,85 133,86.1192881 133,87.5 C133,88.8807119 134.119288,90 135.5,90 Z" id="Oval" fill="#4B4B4B"></path>
    </g>
</svg>