<?xml version="1.0" encoding="utf-8"?>
<!-- Generator: Adobe Illustrator 22.1.0, SVG Export Plug-In . SVG Version: 6.00 Build 0)  -->
<svg version="1.1" id="Calque_1" xmlns="http://www.w3.org/2000/svg" xmlns:xlink="http://www.w3.org/1999/xlink" x="0px" y="0px"
	 viewBox="0 0 25 40" style="enable-background:new 0 0 25 40;" xml:space="preserve">
<style type="text/css">
	.st0{fill:url(#SVGID_1_);}
	.st1{fill:url(#SVGID_2_);}
	.st2{fill:#FFFFFF;}
</style>
<title>Oval</title>
<desc>Created with Sketch.</desc>
<g id="Page-1">
	<g id="XMLID_1_">
		<g>
			<linearGradient id="SVGID_1_" gradientUnits="userSpaceOnUse" x1="0.332" y1="20.4155" x2="24.9068" y2="20.3666">
				<stop  offset="7.346526e-02" style="stop-color:#360033"/>
				<stop  offset="0.8917" style="stop-color:#0B8793"/>
			</linearGradient>
			<path class="st0" d="M25,16.6c0,2.5-0.7,4.8-1.9,6.7c-0.2,0.3-0.3,0.6-0.5,0.9c-1.1,1.7-4.4,5.9-10.1,12.5
				c-5.3-6-8.6-10.2-10.1-12.5C2.2,23.8,2,23.4,1.8,23C0.6,21.1,0,18.9,0,16.6C0,9.7,5.6,4.1,12.5,4.1S25,9.7,25,16.6z"/>
		</g>
		<g>
		</g>
	</g>
</g>
<g id="XMLID_2_">
	<g>
		<linearGradient id="SVGID_2_" gradientUnits="userSpaceOnUse" x1="17.7989" y1="15.9755" x2="18.4783" y2="15.9755">
			<stop  offset="7.346526e-02" style="stop-color:#360033"/>
			<stop  offset="0.8917" style="stop-color:#0B8793"/>
		</linearGradient>
		<circle class="st1" cx="18.1" cy="16" r="0.3"/>
		<path class="st2" d="M13.7,13.6c3.4,0,6,1.9,6,3c0,1.1-2.6,3-6,3c-2.3,0-4.2-0.9-5.7-2.7c-0.3,0-0.4,0-0.4,0
			c-0.9,1.8-2.4,2.3-2.9,2.4c0-1.1,0.3-2,1-2.7c-0.6-0.7-1-1.6-1-2.7c0.4,0.1,2,0.7,2.9,2.4c0,0,0.1,0,0.4,0
			C9.6,14.5,11.5,13.6,13.7,13.6z M18.5,16c0-0.2-0.2-0.3-0.3-0.3s-0.3,0.2-0.3,0.3c0,0.2,0.2,0.3,0.3,0.3S18.5,16.2,18.5,16z"/>
	</g>
	<g>
	</g>
</g>
</svg>
